<?xml version="1.0" encoding="UTF-8"?>
<svg id="Layer_1" xmlns="http://www.w3.org/2000/svg" version="1.1" viewBox="0 0 600 600">
  <!-- Generator: Adobe Illustrator 29.4.0, SVG Export Plug-In . SVG Version: 2.1.0 Build 152)  -->
  <defs>
    <style>
      .st0 {
        fill: #010101;
      }
    </style>
  </defs>
  <g>
    <path class="st0" d="M199.93,279.95c9.63-1.78,18.18,1.48,22.2,10.63,6.45,62.14,9.16,125.05,13.53,187.54-1.45,17.41-24.13,24.06-34.41,9.34-3.34-4.77-3.53-11.89-4.15-17.72-5.95-56.18-5.39-114.42-11.56-170.76-.19-8.17,6.13-17.5,14.39-19.03h0Z"/>
    <path class="st0" d="M390.48,279.95c11.56-2.39,21.34,3.69,23.98,15.11l-12.48,185.91c-4.11,16.46-26.1,20.17-34.79,5.08-3.17-5.52-2.65-10.15-2.5-16.33.88-36.46,5.73-75.75,8.36-112.43,1.37-19.03,1.19-39.33,3.26-58.17.91-8.34,5.16-17.31,14.16-19.16h.01Z"/>
    <path class="st0" d="M313.36,284.24c3.03,2.84,5.54,8.37,5.61,12.61l-.04,182.28c-3.65,21.86-33.84,21.86-37.49,0v-183.29c1.7-15.14,20.99-21.86,31.92-11.61h0Z"/>
  </g>
  <path class="st0" d="M386.42,89.14h107.78c18.21,0,39.48,20.44,41.91,38.28,3.44,25.38-1.95,56.94.2,82.96-.52,5.25-9.06,14.12-13.99,14.12h-16.14l-33.79,319.74c-5.98,26.36-27.95,45.98-55.2,47.88l-236.41-.06c-26.77-2.93-48.5-23.13-53.52-49.57l-33.44-318h-16.14c-4.94,0-13.47-8.87-13.99-14.12,2.16-26.02-3.24-57.6.2-82.96,2.41-17.84,23.7-38.28,41.91-38.28h107.78V21.98c0-1.85,6.47-9.12,8.37-10.37,3.25-2.12,6.06-2.42,9.79-2.7,44.67-3.32,93.43,2.58,138.55.04,4.97-1.1,16.14,9.36,16.14,13.02v67.17h-.01ZM251.04,46.45v42.69h97.89v-42.69h-97.89ZM101.09,127.62v59.4h397.78v-59.4H101.09ZM468.68,224.52H131.3l34.03,314.3c3.36,9.88,11.49,14.96,21.65,15.83,77.61-.95,155.63,1.75,233.01-1.37,7.73-2.33,13.12-8.35,15.12-16.11l33.58-312.65h-.01Z"/>
</svg>