<?xml version="1.0" encoding="UTF-8"?>
<svg id="Layer_1" xmlns="http://www.w3.org/2000/svg" version="1.1" viewBox="0 0 600 600">
  <!-- Generator: Adobe Illustrator 29.4.0, SVG Export Plug-In . SVG Version: 2.1.0 Build 152)  -->
  <path d="M358.73,574.18v-161.81c0-4.04-5.11-8.22-9.12-7.98l-102.63.59c-1.97.41-5.57,4.46-5.57,6.22v162.11l-.89.89H109.67c-3.78,0-8.2-4.13-8.57-7.94v-266.47c-.26-3.72,2.02-6.11,4.42-8.54,10.64-10.71,22.17-20.71,33.04-31.21,52.08-50.28,104.1-100.67,156.52-150.59,3.18-2.39,7.55-1.93,10.58.54,58.31,56.64,116.58,113.32,174.74,170.1,4.53,4.42,9.69,8.48,14.18,12.94,3.21,3.18,4.09,4.47,4.43,9.13v262.96c.16,4.36-4.3,9.12-8.58,9.12h-131.74l.04-.05Z"/>
  <path d="M84.03,92h84.88v50.69l4.72-3.23,113.76-108.47c6.14-5.76,15.22-6.98,22.37-2.32l268.85,255.19c13.45,16.3-6.76,37.62-23.61,24.78l-254.94-241.98L44.5,309.19c-14.44,9.99-32.94-4.32-26.01-20.7,1.9-4.5,8.49-10.16,12.17-13.76,17.46-17.11,35.97-33.21,53.36-50.38V92h.01Z"/>
</svg>