<?xml version="1.0" encoding="UTF-8"?>
<svg id="Layer_1" xmlns="http://www.w3.org/2000/svg" version="1.1" viewBox="0 0 600 600">
  <!-- Generator: Adobe Illustrator 29.4.0, SVG Export Plug-In . SVG Version: 2.1.0 Build 152)  -->
  <g>
    <path d="M579.97,196.25c-17.32-30.04-52.12-29.78-84.2-29.2H78.6c-44.39.62-75.93,29.66-64.09,75.67,6.56,25.46,14.92,51.02,22.07,76.49,7.72,27.48,14.67,55.7,23,83.04,2.97,9.75,6.34,14.62,16.74,17.26l138.31.02c6.12,3.98,9.98,10.64,16.99,13.55l137.02-.19c6.48-3.18,10.98-9.22,16.61-13.37l137.75.02c9.27-1.94,13.74-6.34,16.58-15.12,3.31-10.22,5.83-21.16,8.78-31.57,10.13-35.83,19.96-71.98,29.8-107.94,7.27-26.54,17.02-42.28,1.82-68.66h0ZM570.82,232.8c-2.72,12.95-8.1,27.24-11.68,40.19-10.78,39.06-21.38,78.22-32.75,117.1-.91,3.11-1.56,8.67-3.02,11.39-.49.91-1.05,1.6-2.01,2.05,0,0-131.3-1.47-137.21.04-5.89,1.52-7.63,2.51-9.19,3.32-2.36,1.23-9.13,8.96-11.77,10.89-42.34-.38-84.89.77-127.12-.59-5.81-5.93-11.86-13.39-20.87-13.82l-135.45.28c-1.62-.09-2.97-1.02-3.44-2.59-16.26-56.37-31.52-112.9-48.09-169.19-3.77-29.71,17.28-46.67,45.17-48.11l321.59.02v.2h79.29c9.3-.12,18.65-.44,27.95-.57,8.15-.12,16.24-.09,24.22.34,27.27,1.47,50.66,19.27,44.37,49.03h0Z"/>
    <path d="M474.29,184c-4.42.06-8.82.07-13.2,0h13.2Z"/>
    <rect x="363.61" y="227.6" width="32.32" height="16.13"/>
    <rect x="97.93" y="227.6" width="31.7" height="16.57"/>
    <rect x="310.59" y="227.6" width="32.14" height="16.13"/>
    <rect x="150.96" y="227.6" width="31.7" height="16.13"/>
    <rect x="257.57" y="227.6" width="31.7" height="16.13"/>
    <rect x="470.23" y="227.6" width="31.7" height="16.13"/>
    <rect x="363.61" y="341.71" width="32.28" height="16.09"/>
    <rect x="417.21" y="227.6" width="31.4" height="16.41"/>
    <rect x="204.55" y="227.6" width="31.12" height="16.13"/>
    <rect x="150.96" y="341.71" width="31.7" height="16.1"/>
    <rect x="470.23" y="341.71" width="31.7" height="16.07"/>
    <rect x="310.59" y="341.71" width="32.28" height="15.83"/>
    <rect x="97.93" y="341.71" width="31.7" height="15.99"/>
    <rect x="257.57" y="341.71" width="31.7" height="15.99"/>
    <rect x="417.21" y="341.71" width="31.7" height="16.13"/>
    <rect x="204.55" y="341.71" width="31.12" height="16.13"/>
  </g>
  <rect x="98" y="284.66" width="404" height="18.05"/>
</svg>